<svg xmlns="http://www.w3.org/2000/svg"  viewBox="0 0 48 48" width="240px" height="240px" baseProfile="basic"><linearGradient id="nRrVGESID7D2lVebQousia" x1="-255.008" x2="-225.443" y1="81.828" y2="111.393" gradientTransform="translate(263.077 -69.618)" gradientUnits="userSpaceOnUse"><stop offset="0" stop-color="#3097ef"/><stop offset="1" stop-color="#0a73d9"/></linearGradient><path fill="url(#nRrVGESID7D2lVebQousia)" d="M3.991,23.999c0-11.044,8.964-20.009,20.009-20.009v5	c-8.284,0-15.009,6.727-15.009,15.009c0,8.284,6.725,15.009,15.009,15.009c8.283,0,15.009-6.725,15.009-15.009h5	c0,11.045-8.965,20.009-20.009,20.009C12.955,44.009,3.991,35.045,3.991,23.999z"/><linearGradient id="nRrVGESID7D2lVebQousib" x1="-240.648" x2="-240.648" y1="76.72" y2="113.665" gradientTransform="translate(268.229 -67.843)" gradientUnits="userSpaceOnUse"><stop offset="0" stop-color="#fed100"/><stop offset="1" stop-color="#e36001"/></linearGradient><path fill="url(#nRrVGESID7D2lVebQousib)" d="M22.662,29.425l-7.796-6.381l3.167-3.868l5.848,4.787	L36.403,8.439l3.892,3.14L26.191,29.061C25.321,30.139,23.735,30.303,22.662,29.425z"/></svg>